ply
format ascii 1.0
comment VCGLIB generated
element vertex 192
property float x
property float y
property float z
property uchar red
property uchar green
property uchar blue
property uchar alpha
property float texture_u
property float texture_v
element face 124
property list uchar int vertex_indices
end_header
0 0.211725 0.211725 48 46 44 255 1 0.5
0 -0.211725 0.211725 48 46 44 255 1 1
0.041306 -0.211725 0.207657 48 46 44 255 0.96875 1
0.041306 0.211725 0.2076569 48 46 44 255 0.96875 0.5
0.041306 0.211725 0.2076569 48 46 44 255 0.96875 0.5
0.041306 -0.211725 0.207657 48 46 44 255 0.96875 1
0.081024 -0.211725 0.195609 48 46 44 255 0.9375 1
0.081024 0.2117249 0.195609 48 46 44 255 0.9375 0.5
0.081024 0.2117249 0.195609 48 46 44 255 0.9375 0.5
0.081024 -0.211725 0.195609 48 46 44 255 0.9375 1
0.117628 -0.211725 0.176043 48 46 44 255 0.90625 1
0.117628 0.211725 0.176043 48 46 44 255 0.90625 0.5
0.117628 0.211725 0.176043 48 46 44 255 0.90625 0.5
0.117628 -0.211725 0.176043 48 46 44 255 0.90625 1
0.149712 -0.211725 0.149712 48 46 44 255 0.875 1
0.149712 0.211725 0.149712 48 46 44 255 0.875 0.5
0.149712 0.211725 0.149712 48 46 44 255 0.875 0.5
0.149712 -0.211725 0.149712 48 46 44 255 0.875 1
0.176043 -0.211725 0.117628 48 46 44 255 0.84375 1
0.176043 0.211725 0.117628 48 46 44 255 0.84375 0.5
0.176043 0.211725 0.117628 48 46 44 255 0.84375 0.5
0.176043 -0.211725 0.117628 48 46 44 255 0.84375 1
0.195609 -0.211725 0.08102401 48 46 44 255 0.8125 1
0.195609 0.211725 0.08102401 48 46 44 255 0.8125 0.5
0.195609 0.211725 0.08102401 48 46 44 255 0.8125 0.5
0.195609 -0.211725 0.08102401 48 46 44 255 0.8125 1
0.207657 -0.211725 0.04130597 48 46 44 255 0.78125 1
0.207657 0.211725 0.04130601 48 46 44 255 0.78125 0.5
0.207657 0.211725 0.04130601 48 46 44 255 0.78125 0.5
0.207657 -0.211725 0.04130597 48 46 44 255 0.78125 1
0.211725 -0.211725 1.490116e-08 48 46 44 255 0.75 1
0.211725 0.211725 -1.490116e-08 48 46 44 255 0.75 0.5
0.211725 0.211725 -1.490116e-08 48 46 44 255 0.75 0.5
0.211725 -0.211725 1.490116e-08 48 46 44 255 0.75 1
0.207657 -0.211725 -0.04130601 48 46 44 255 0.71875 1
0.207657 0.211725 -0.04130597 48 46 44 255 0.71875 0.5
0.207657 0.211725 -0.04130597 48 46 44 255 0.71875 0.5
0.207657 -0.211725 -0.04130601 48 46 44 255 0.71875 1
0.195609 -0.211725 -0.08102401 48 46 44 255 0.6875 1
0.195609 0.211725 -0.08102401 48 46 44 255 0.6875 0.5
0.195609 0.211725 -0.08102401 48 46 44 255 0.6875 0.5
0.195609 -0.211725 -0.08102401 48 46 44 255 0.6875 1
0.176043 -0.211725 -0.117628 48 46 44 255 0.65625 1
0.176043 0.211725 -0.117628 48 46 44 255 0.65625 0.5
0.176043 0.211725 -0.117628 48 46 44 255 0.65625 0.5
0.176043 -0.211725 -0.117628 48 46 44 255 0.65625 1
0.149712 -0.211725 -0.149712 48 46 44 255 0.625 1
0.149712 0.211725 -0.149712 48 46 44 255 0.625 0.5
0.149712 0.211725 -0.149712 48 46 44 255 0.625 0.5
0.149712 -0.211725 -0.149712 48 46 44 255 0.625 1
0.117628 -0.211725 -0.176043 48 46 44 255 0.59375 1
0.117628 0.211725 -0.176043 48 46 44 255 0.59375 0.5
0.117628 0.211725 -0.176043 48 46 44 255 0.59375 0.5
0.117628 -0.211725 -0.176043 48 46 44 255 0.59375 1
0.081024 -0.2117249 -0.195609 48 46 44 255 0.5625 1
0.081024 0.211725 -0.195609 48 46 44 255 0.5625 0.5
0.081024 0.211725 -0.195609 48 46 44 255 0.5625 0.5
0.081024 -0.2117249 -0.195609 48 46 44 255 0.5625 1
0.041306 -0.211725 -0.2076569 48 46 44 255 0.53125 1
0.041306 0.211725 -0.207657 48 46 44 255 0.53125 0.5
0.041306 0.211725 -0.207657 48 46 44 255 0.53125 0.5
0.041306 -0.211725 -0.2076569 48 46 44 255 0.53125 1
0 -0.211725 -0.211725 48 46 44 255 0.5 1
0 0.211725 -0.211725 48 46 44 255 0.5 0.5
0 0.211725 -0.211725 48 46 44 255 0.5 0.5
0 -0.211725 -0.211725 48 46 44 255 0.5 1
-0.041306 -0.211725 -0.2076569 48 46 44 255 0.46875 1
-0.041306 0.211725 -0.207657 48 46 44 255 0.46875 0.5
-0.041306 0.211725 -0.207657 48 46 44 255 0.46875 0.5
-0.041306 -0.211725 -0.2076569 48 46 44 255 0.46875 1
-0.081024 -0.2117249 -0.195609 48 46 44 255 0.4375 1
-0.081024 0.211725 -0.195609 48 46 44 255 0.4375 0.5
-0.081024 0.211725 -0.195609 48 46 44 255 0.4375 0.5
-0.081024 -0.2117249 -0.195609 48 46 44 255 0.4375 1
-0.117628 -0.211725 -0.176043 48 46 44 255 0.40625 1
-0.117628 0.211725 -0.176043 48 46 44 255 0.40625 0.5
-0.117628 0.211725 -0.176043 48 46 44 255 0.40625 0.5
-0.117628 -0.211725 -0.176043 48 46 44 255 0.40625 1
-0.149712 -0.211725 -0.149712 48 46 44 255 0.375 1
-0.149712 0.211725 -0.149712 48 46 44 255 0.375 0.5
-0.149712 0.211725 -0.149712 48 46 44 255 0.375 0.5
-0.149712 -0.211725 -0.149712 48 46 44 255 0.375 1
-0.176043 -0.211725 -0.117628 48 46 44 255 0.34375 1
-0.176043 0.211725 -0.117628 48 46 44 255 0.34375 0.5
-0.176043 0.211725 -0.117628 48 46 44 255 0.34375 0.5
-0.176043 -0.211725 -0.117628 48 46 44 255 0.34375 1
-0.195609 -0.211725 -0.08102401 48 46 44 255 0.3125 1
-0.195609 0.211725 -0.08102401 48 46 44 255 0.3125 0.5
-0.195609 0.211725 -0.08102401 48 46 44 255 0.3125 0.5
-0.195609 -0.211725 -0.08102401 48 46 44 255 0.3125 1
-0.207657 -0.211725 -0.04130601 48 46 44 255 0.28125 1
-0.207657 0.211725 -0.04130597 48 46 44 255 0.28125 0.5
-0.207657 0.211725 -0.04130597 48 46 44 255 0.28125 0.5
-0.207657 -0.211725 -0.04130601 48 46 44 255 0.28125 1
-0.211725 -0.211725 1.490116e-08 48 46 44 255 0.25 1
-0.211725 0.211725 -1.490116e-08 48 46 44 255 0.25 0.5
-0.211725 0.211725 -1.490116e-08 48 46 44 255 0.25 0.5
-0.211725 -0.211725 1.490116e-08 48 46 44 255 0.25 1
-0.207657 -0.211725 0.04130597 48 46 44 255 0.21875 1
-0.207657 0.211725 0.04130601 48 46 44 255 0.21875 0.5
-0.207657 0.211725 0.04130601 48 46 44 255 0.21875 0.5
-0.207657 -0.211725 0.04130597 48 46 44 255 0.21875 1
-0.195609 -0.211725 0.08102401 48 46 44 255 0.1875 1
-0.195609 0.211725 0.08102401 48 46 44 255 0.1875 0.5
-0.195609 0.211725 0.08102401 48 46 44 255 0.1875 0.5
-0.195609 -0.211725 0.08102401 48 46 44 255 0.1875 1
-0.176043 -0.211725 0.117628 48 46 44 255 0.15625 1
-0.176043 0.211725 0.117628 48 46 44 255 0.15625 0.5
-0.176043 0.211725 0.117628 48 46 44 255 0.15625 0.5
-0.176043 -0.211725 0.117628 48 46 44 255 0.15625 1
-0.149712 -0.211725 0.149712 48 46 44 255 0.125 1
-0.149712 0.211725 0.149712 48 46 44 255 0.125 0.5
-0.149712 0.211725 0.149712 48 46 44 255 0.125 0.5
-0.149712 -0.211725 0.149712 48 46 44 255 0.125 1
-0.117628 -0.211725 0.176043 48 46 44 255 0.09375 1
-0.117628 0.211725 0.176043 48 46 44 255 0.09375 0.5
-0.117628 0.211725 0.176043 48 46 44 255 0.09375 0.5
-0.117628 -0.211725 0.176043 48 46 44 255 0.09375 1
-0.081024 -0.211725 0.195609 48 46 44 255 0.0625 1
-0.081024 0.2117249 0.195609 48 46 44 255 0.0625 0.5
0.041306 -0.211725 0.207657 48 46 44 255 0.296822 0.485388
0 -0.211725 0.211725 48 46 44 255 0.25 0.49
-0.041306 -0.211725 0.207657 48 46 44 255 0.203178 0.485388
-0.081024 -0.211725 0.195609 48 46 44 255 0.158156 0.471731
-0.117628 -0.211725 0.176043 48 46 44 255 0.116663 0.449553
-0.149712 -0.211725 0.149712 48 46 44 255 0.080294 0.419706
-0.176043 -0.211725 0.117628 48 46 44 255 0.050447 0.383337
-0.195609 -0.211725 0.08102401 48 46 44 255 0.028269 0.341844
-0.207657 -0.211725 0.04130597 48 46 44 255 0.014612 0.296822
-0.211725 -0.211725 1.490116e-08 48 46 44 255 0.01 0.25
-0.207657 -0.211725 -0.04130601 48 46 44 255 0.014612 0.203178
-0.195609 -0.211725 -0.08102401 48 46 44 255 0.028269 0.158156
-0.176043 -0.211725 -0.117628 48 46 44 255 0.050447 0.116663
-0.149712 -0.211725 -0.149712 48 46 44 255 0.080294 0.080294
-0.117628 -0.211725 -0.176043 48 46 44 255 0.116663 0.050447
-0.081024 -0.2117249 -0.195609 48 46 44 255 0.158156 0.028269
-0.041306 -0.211725 -0.2076569 48 46 44 255 0.203178 0.014612
0 -0.211725 -0.211725 48 46 44 255 0.25 0.01
0.041306 -0.211725 -0.2076569 48 46 44 255 0.296822 0.014612
0.081024 -0.2117249 -0.195609 48 46 44 255 0.341844 0.028269
0.117628 -0.211725 -0.176043 48 46 44 255 0.383337 0.050447
0.149712 -0.211725 -0.149712 48 46 44 255 0.419706 0.080294
0.176043 -0.211725 -0.117628 48 46 44 255 0.449553 0.116663
0.195609 -0.211725 -0.08102401 48 46 44 255 0.471731 0.158156
0.207657 -0.211725 -0.04130601 48 46 44 255 0.485388 0.203178
0.211725 -0.211725 1.490116e-08 48 46 44 255 0.49 0.25
0.207657 -0.211725 0.04130597 48 46 44 255 0.485388 0.296822
0.195609 -0.211725 0.08102401 48 46 44 255 0.471731 0.341844
0.176043 -0.211725 0.117628 48 46 44 255 0.449553 0.383337
0.149712 -0.211725 0.149712 48 46 44 255 0.419706 0.419706
0.117628 -0.211725 0.176043 48 46 44 255 0.383337 0.449553
0.081024 -0.211725 0.195609 48 46 44 255 0.341844 0.471731
-0.081024 0.2117249 0.195609 48 46 44 255 0.0625 0.5
-0.081024 -0.211725 0.195609 48 46 44 255 0.0625 1
-0.041306 -0.211725 0.207657 48 46 44 255 0.03125 1
-0.041306 0.211725 0.2076569 48 46 44 255 0.03125 0.5
-0.041306 0.211725 0.2076569 48 46 44 255 0.03125 0.5
-0.041306 -0.211725 0.207657 48 46 44 255 0.03125 1
0 -0.211725 0.211725 48 46 44 255 0 1
0 0.211725 0.211725 48 46 44 255 0 0.5
0 0.211725 0.211725 48 46 44 255 0.75 0.49
0.041306 0.211725 0.2076569 48 46 44 255 0.796822 0.485388
0.081024 0.2117249 0.195609 48 46 44 255 0.841844 0.471731
0.117628 0.211725 0.176043 48 46 44 255 0.883337 0.449553
0.149712 0.211725 0.149712 48 46 44 255 0.919706 0.419706
0.176043 0.211725 0.117628 48 46 44 255 0.949553 0.383337
0.195609 0.211725 0.08102401 48 46 44 255 0.971731 0.341844
0.207657 0.211725 0.04130601 48 46 44 255 0.985388 0.296822
0.211725 0.211725 -1.490116e-08 48 46 44 255 0.99 0.25
0.207657 0.211725 -0.04130597 48 46 44 255 0.985388 0.203178
0.195609 0.211725 -0.08102401 48 46 44 255 0.971731 0.158156
0.176043 0.211725 -0.117628 48 46 44 255 0.949553 0.116663
0.149712 0.211725 -0.149712 48 46 44 255 0.919706 0.080294
0.117628 0.211725 -0.176043 48 46 44 255 0.883337 0.050447
0.081024 0.211725 -0.195609 48 46 44 255 0.841844 0.028269
0.041306 0.211725 -0.207657 48 46 44 255 0.796822 0.014612
0 0.211725 -0.211725 48 46 44 255 0.75 0.01
-0.041306 0.211725 -0.207657 48 46 44 255 0.703178 0.014612
-0.081024 0.211725 -0.195609 48 46 44 255 0.658156 0.028269
-0.117628 0.211725 -0.176043 48 46 44 255 0.616663 0.050447
-0.149712 0.211725 -0.149712 48 46 44 255 0.580294 0.080294
-0.176043 0.211725 -0.117628 48 46 44 255 0.550447 0.116663
-0.195609 0.211725 -0.08102401 48 46 44 255 0.528269 0.158156
-0.207657 0.211725 -0.04130597 48 46 44 255 0.514612 0.203178
-0.211725 0.211725 -1.490116e-08 48 46 44 255 0.51 0.25
-0.207657 0.211725 0.04130601 48 46 44 255 0.514612 0.296822
-0.195609 0.211725 0.08102401 48 46 44 255 0.528269 0.341844
-0.176043 0.211725 0.117628 48 46 44 255 0.550447 0.383337
-0.149712 0.211725 0.149712 48 46 44 255 0.580294 0.419706
-0.117628 0.211725 0.176043 48 46 44 255 0.616663 0.449553
-0.081024 0.2117249 0.195609 48 46 44 255 0.658156 0.471731
-0.041306 0.211725 0.2076569 48 46 44 255 0.703178 0.485388
3 0 1 2 
3 0 2 3 
3 4 5 6 
3 4 6 7 
3 8 9 10 
3 8 10 11 
3 12 13 14 
3 12 14 15 
3 16 17 18 
3 16 18 19 
3 20 21 22 
3 20 22 23 
3 24 25 26 
3 24 26 27 
3 28 29 30 
3 28 30 31 
3 32 33 34 
3 32 34 35 
3 36 37 38 
3 36 38 39 
3 40 41 42 
3 40 42 43 
3 44 45 46 
3 44 46 47 
3 48 49 50 
3 48 50 51 
3 52 53 54 
3 52 54 55 
3 56 57 58 
3 56 58 59 
3 60 61 62 
3 60 62 63 
3 64 65 66 
3 64 66 67 
3 68 69 70 
3 68 70 71 
3 72 73 74 
3 72 74 75 
3 76 77 78 
3 76 78 79 
3 80 81 82 
3 80 82 83 
3 84 85 86 
3 84 86 87 
3 88 89 90 
3 88 90 91 
3 92 93 94 
3 92 94 95 
3 96 97 98 
3 96 98 99 
3 100 101 102 
3 100 102 103 
3 104 105 106 
3 104 106 107 
3 108 109 110 
3 108 110 111 
3 112 113 114 
3 112 114 115 
3 116 117 118 
3 116 118 119 
3 120 121 122 
3 120 122 123 
3 120 123 124 
3 120 124 125 
3 120 125 126 
3 120 126 127 
3 120 127 128 
3 120 128 129 
3 120 129 130 
3 120 130 131 
3 120 131 132 
3 120 132 133 
3 120 133 134 
3 120 134 135 
3 120 135 136 
3 120 136 137 
3 120 137 138 
3 120 138 139 
3 120 139 140 
3 120 140 141 
3 120 141 142 
3 120 142 143 
3 120 143 144 
3 120 144 145 
3 120 145 146 
3 120 146 147 
3 120 147 148 
3 120 148 149 
3 120 149 150 
3 120 150 151 
3 152 153 154 
3 152 154 155 
3 156 157 158 
3 156 158 159 
3 160 161 162 
3 160 162 163 
3 160 163 164 
3 160 164 165 
3 160 165 166 
3 160 166 167 
3 160 167 168 
3 160 168 169 
3 160 169 170 
3 160 170 171 
3 160 171 172 
3 160 172 173 
3 160 173 174 
3 160 174 175 
3 160 175 176 
3 160 176 177 
3 160 177 178 
3 160 178 179 
3 160 179 180 
3 160 180 181 
3 160 181 182 
3 160 182 183 
3 160 183 184 
3 160 184 185 
3 160 185 186 
3 160 186 187 
3 160 187 188 
3 160 188 189 
3 160 189 190 
3 160 190 191 
