ply
format ascii 1.0
comment VCGLIB generated
element vertex 48
property float x
property float y
property float z
property uchar red
property uchar green
property uchar blue
property uchar alpha
property float texture_u
property float texture_v
element face 24
property list uchar int vertex_indices
end_header
-0.05029559 -0.05029559 0.0193055 255 202 50 255 0.625 0.5
0.05029559 -0.05029559 0.0193055 255 202 50 255 0.875 0.5
0.05029559 0.05029559 0.0193055 255 203 59 255 0.875 0.75
-0.05029559 0.05029559 0.0193055 255 202 50 255 0.625 0.75
-0.05029559 0.05029559 1.189556 248 200 52 255 0.375 0.75
-0.05029559 0.05029559 0.0193055 255 202 50 255 0.625 0.75
0.05029559 0.05029559 0.0193055 255 203 59 255 0.625 1
0.05029559 0.05029559 1.189556 255 202 50 255 0.375 1
0.05029559 0.05029559 1.189556 255 202 50 255 0.375 0
0.05029559 0.05029559 0.0193055 255 203 59 255 0.625 0
0.05029559 -0.05029559 0.0193055 255 202 50 255 0.625 0.25
0.05029559 -0.05029559 1.189556 255 202 50 255 0.375 0.25
0.05029559 -0.05029559 1.189556 255 202 50 255 0.125 0.5
-0.05029559 -0.05029559 1.189556 255 202 50 255 0.375 0.5
-0.05029559 0.05029559 1.189556 248 200 52 255 0.375 0.75
0.05029559 0.05029559 1.189556 255 202 50 255 0.125 0.75
-0.05029559 -0.05029559 1.189556 255 202 50 255 0.375 0.5
-0.05029559 -0.05029559 0.0193055 255 202 50 255 0.625 0.5
-0.05029559 0.05029559 0.0193055 255 202 50 255 0.625 0.75
-0.05029559 0.05029559 1.189556 248 200 52 255 0.375 0.75
0.05029559 -0.05029559 1.189556 255 202 50 255 0.375 0.25
0.05029559 -0.05029559 0.0193055 255 202 50 255 0.625 0.25
-0.05029559 -0.05029559 0.0193055 255 202 50 255 0.625 0.5
-0.05029559 -0.05029559 1.189556 255 202 50 255 0.375 0.5
-0.03683436 -0.06320951 0.0002262667 0 0 0 255 0.625 0.5
0.03683436 -0.06320951 0.0002262667 0 0 0 255 0.875 0.5
0.03683436 0.03683436 0.0002262667 10 10 10 255 0.875 0.75
-0.03683436 0.03683436 0.0002262667 0 0 0 255 0.625 0.75
-0.03683436 0.03683436 1.178566 3 3 3 255 0.375 0.75
-0.03683436 0.03683436 0.0002262667 0 0 0 255 0.625 0.75
0.03683436 0.03683436 0.0002262667 10 10 10 255 0.625 1
0.03683436 0.03683436 1.178566 38 38 38 255 0.375 1
0.03683436 0.03683436 1.178566 38 38 38 255 0.375 0
0.03683436 0.03683436 0.0002262667 10 10 10 255 0.625 0
0.03683436 -0.06320951 0.0002262667 0 0 0 255 0.625 0.25
0.03683436 -0.06320951 1.178566 3 3 3 255 0.375 0.25
0.03683436 -0.06320951 1.178566 3 3 3 255 0.125 0.5
-0.03683436 -0.06320951 1.178566 0 0 0 255 0.375 0.5
-0.03683436 0.03683436 1.178566 3 3 3 255 0.375 0.75
0.03683436 0.03683436 1.178566 38 38 38 255 0.125 0.75
-0.03683436 -0.06320951 1.178566 0 0 0 255 0.375 0.5
-0.03683436 -0.06320951 0.0002262667 0 0 0 255 0.625 0.5
-0.03683436 0.03683436 0.0002262667 0 0 0 255 0.625 0.75
-0.03683436 0.03683436 1.178566 3 3 3 255 0.375 0.75
0.03683436 -0.06320951 1.178566 3 3 3 255 0.375 0.25
0.03683436 -0.06320951 0.0002262667 0 0 0 255 0.625 0.25
-0.03683436 -0.06320951 0.0002262667 0 0 0 255 0.625 0.5
-0.03683436 -0.06320951 1.178566 0 0 0 255 0.375 0.5
3 0 1 2 
3 0 2 3 
3 4 5 6 
3 4 6 7 
3 8 9 10 
3 8 10 11 
3 12 13 14 
3 12 14 15 
3 16 17 18 
3 16 18 19 
3 20 21 22 
3 20 22 23 
3 24 25 26 
3 24 26 27 
3 28 29 30 
3 28 30 31 
3 32 33 34 
3 32 34 35 
3 36 37 38 
3 36 38 39 
3 40 41 42 
3 40 42 43 
3 44 45 46 
3 44 46 47 
