ply
format ascii 1.0
comment VCGLIB generated
element vertex 324
property float x
property float y
property float z
property uchar red
property uchar green
property uchar blue
property uchar alpha
property float texture_u
property float texture_v
element face 164
property list uchar int vertex_indices
end_header
0.2774231 0.9125043 0.3385523 141 138 138 255 0.2509251 0.5639837
0.2774231 0.9125043 0.3662234 141 138 138 255 0.2509251 0.5757045
-0.2911858 0.9125043 0.3662234 112 110 110 255 4.470348e-08 0.5757042
0.2952245 0.9341102 0.3405179 0 0 0 255 0.126581 0.9551967
0.2952245 0.9341102 0.376361 0 0 0 255 0.1265807 0.9397933
0.2952245 -1.06589 0.3763616 0 0 0 255 0.9999985 0.9397933
-0.2911858 -1.044284 0.3662241 133 130 130 255 0.8458212 0.5122992
-0.2911858 0.9125043 0.3662234 112 110 110 255 0 0.5122991
0.2774231 0.9125043 0.3662234 141 138 138 255 5.960464e-08 0.2652616
-0.2911858 -1.044284 0.338553 88 86 86 255 0.6176377 0.5482638
0.2774231 -1.044284 0.338553 118 116 116 255 0.8610029 0.548264
0.2952245 -1.06589 0.3405185 0 0 0 255 0.8686231 0.5577694
-0.3089873 -1.06589 0.3763616 0 0 0 255 0.610022 0.5734731
-0.3089873 -1.06589 0.3405185 0 0 0 255 0.6100199 0.5577692
0.2952245 -1.06589 0.3405185 0 0 0 255 0.8686231 0.5577694
-0.2911858 -1.044284 0.3662241 133 130 130 255 0.02917638 0.5442674
-0.2911858 -1.044284 0.338553 88 86 86 255 0.02917632 0.5321659
-0.2911858 0.9125043 0.3385523 97 95 95 255 0.8686253 0.532164
0.2774231 -1.044284 0.338553 118 116 116 255 8.940697e-08 0.5281659
0.2774231 -1.044284 0.3662241 133 130 130 255 8.940697e-08 0.516297
0.2774231 0.9125043 0.3662234 141 138 138 255 0.8558728 0.5162974
-0.3089873 0.9341102 0.376361 100 98 98 255 0.1275945 0.9900235
-0.3089873 0.9341102 0.3405179 39 38 38 255 0.1275938 0.9745988
-0.3089873 -1.06589 0.3405185 0 0 0 255 0.9999867 0.9745981
0.2952245 -1.06589 0.3405185 0 0 0 255 0.9999988 0.9551966
0.2774231 -1.044284 0.3662241 133 130 130 255 0.3440415 0.5482653
0.2774231 -1.044284 0.338553 118 116 116 255 0.3440415 0.559986
-0.2911858 -1.044284 0.338553 88 86 86 255 0.09311646 0.5599857
0.2774231 -1.044284 0.3662241 133 130 130 255 0.8458213 0.2652617
-0.2911858 0.9125043 0.3662234 112 110 110 255 0.8686253 0.5442655
0.2774231 0.9125043 0.3385523 141 138 138 255 0.8558728 0.5281663
-0.3089873 0.9341102 0.3405179 39 38 38 255 0.6060219 0.5577869
-0.3089873 0.9341102 0.376361 100 98 98 255 0.6060189 0.5735192
0.2952245 0.9341102 0.376361 0 0 0 255 0.3480369 0.5735193
-0.2911858 0.9125043 0.3385523 97 95 95 255 7.450581e-08 0.5639834
0.2952245 -1.06589 0.3763616 0 0 0 255 8.940697e-08 1.192093e-07
0.2952245 0.9341102 0.376361 0 0 0 255 0.8686252 4.470348e-08
-0.3089873 0.9341102 0.376361 100 98 98 255 0.8686253 0.2612637
-0.2911858 0.9125043 0.3385523 97 95 95 255 0.1370179 0.9668916
-0.2911858 -1.044284 0.338553 88 86 86 255 0.9905618 0.9668909
-0.3089873 -1.06589 0.3405185 0 0 0 255 0.9999867 0.9745981
0.2774231 -1.044284 0.338553 118 116 116 255 0.9905633 0.9628931
0.2774231 0.9125043 0.3385523 141 138 138 255 0.1360167 0.9628932
0.2952245 0.9341102 0.3405179 0 0 0 255 0.126581 0.9551967
0.2952245 0.9341102 0.3405179 0 0 0 255 0.126581 0.9551967
0.2952245 -1.06589 0.3405185 0 0 0 255 0.9999988 0.9551966
0.2774231 -1.044284 0.338553 118 116 116 255 0.9905633 0.9628931
-0.3089873 -1.06589 0.3405185 0 0 0 255 0.6100199 0.5577692
0.2952245 0.9341102 0.3405179 0 0 0 255 0.34804 0.5577871
-0.3089873 -1.06589 0.3763616 0 0 0 255 0.9999874 0.9900227
-0.2911858 -1.044284 0.3662241 133 130 130 255 0.09311648 0.548265
-0.3089873 -1.06589 0.3763616 0 0 0 255 1.192093e-07 0.2612637
-0.3089873 -1.06589 0.3405185 0 0 0 255 0.9999867 0.9745981
-0.3089873 0.9341102 0.3405179 39 38 38 255 0.1275938 0.9745988
-0.2911858 0.9125043 0.3385523 97 95 95 255 0.1370179 0.9668916
0.2774231 0.9125043 0.3385523 141 138 138 255 0.3556426 0.5482645
-0.2911858 0.9125043 0.3385523 97 95 95 255 0.5984231 0.5482644
-0.3089873 0.9341102 0.3405179 39 38 38 255 0.6060219 0.5577869
0.2952245 0.9341102 0.3405179 0 0 0 255 0.34804 0.5577871
0.2952245 -1.06589 0.3763616 0 0 0 255 0.8686252 0.5734733
-0.2223299 0.9234889 0.006838218 129 128 128 255 0.9186681 8.940697e-08
-0.306418 0.9234889 0.006838218 65 65 65 255 0.9549025 5.960464e-08
-0.306418 0.9234896 2.053457 7 7 7 255 0.9549029 0.8916968
-0.3199149 0.9397605 0.006838212 41 41 41 255 0.872623 8.940697e-08
-0.2223299 0.9397605 0.006838212 134 133 133 255 0.9146701 5.960464e-08
-0.2223299 0.9397612 2.053457 12 12 12 255 0.9146703 0.8917586
-0.2223299 0.9234889 0.006838218 129 128 128 255 0.311313 0.5666711
-0.2223299 0.9397605 0.006838212 134 133 133 255 0.3167062 0.5711624
-0.3199149 0.9397605 0.006838212 41 41 41 255 0.2843355 0.592521
-0.2223299 0.9397612 2.053457 12 12 12 255 0.313711 0.5839157
-0.2223299 0.9234896 2.053457 12 12 12 255 0.3190934 0.5794172
-0.306418 0.9234896 2.053457 7 7 7 255 0.3469263 0.5978504
-0.3199149 0.9397612 2.053457 136 133 133 255 0.958901 5.960464e-08
-0.3199149 0.8568215 2.053457 12 12 12 255 0.9946423 5.960464e-08
-0.3199149 0.8568209 0.006838239 38 37 37 255 0.9946421 0.8916587
-0.306418 0.8568215 2.053457 12 11 11 255 5.960464e-08 0.9248333
-0.306418 0.9234896 2.053457 7 7 7 255 5.960464e-08 0.8957564
-0.306418 0.9234889 0.006838218 65 65 65 255 0.8808635 0.8957565
-0.2223299 0.9234896 2.053457 12 12 12 255 0.9186685 0.8916969
-0.3199149 0.9397612 2.053457 136 133 133 255 0.3460113 0.6053082
-0.306418 0.8568209 0.006838239 86 86 86 255 0.8736382 0.9940231
-0.3199149 0.8568209 0.006838239 38 37 37 255 0.8736382 0.9999483
-0.3199149 0.8568215 2.053457 12 12 12 255 8.940697e-08 0.9999463
-0.3199149 0.8568215 2.053457 12 12 12 255 0.3734477 0.582377
-0.3199149 0.9397612 2.053457 136 133 133 255 0.8726232 0.8917586
-0.3199149 0.9397605 0.006838212 41 41 41 255 0.9589007 0.8916587
-0.306418 0.8568209 0.006838239 86 86 86 255 0.8808635 0.9248334
-0.2223299 0.9397605 0.006838212 134 133 133 255 0.9999989 0.928831
-0.2223299 0.9234889 0.006838218 129 128 128 255 0.9999989 0.9357944
-0.2223299 0.9234896 2.053457 12 12 12 255 0.1032347 0.9357955
-0.2223299 0.9397612 2.053457 12 12 12 255 0.1032347 0.9288321
-0.306418 0.9234889 0.006838218 65 65 65 255 0.2834194 0.585075
-0.306418 0.8568209 0.006838239 86 86 86 255 0.2613209 0.5666711
-0.3199149 0.8568209 0.006838239 38 37 37 255 0.256844 0.5696262
-0.306418 0.8568215 2.053457 12 11 11 255 8.940697e-08 0.9940212
-0.306418 0.8568215 2.053457 12 11 11 255 0.3689806 0.5794172
0.2085672 0.9234889 0.006838218 129 128 128 255 0.9186681 8.940697e-08
0.2926553 0.9234896 2.053457 7 7 7 255 0.9549029 0.8916968
0.2926553 0.9234889 0.006838218 65 65 65 255 0.9549025 5.960464e-08
0.3061522 0.9397605 0.006838212 41 41 41 255 0.872623 8.940697e-08
0.2085672 0.9397612 2.053457 12 12 12 255 0.9146703 0.8917586
0.2085672 0.9397605 0.006838212 134 133 133 255 0.9146701 5.960464e-08
0.2085672 0.9234889 0.006838218 129 128 128 255 0.311313 0.5666711
0.3061522 0.9397605 0.006838212 41 41 41 255 0.2843355 0.592521
0.2085672 0.9397605 0.006838212 134 133 133 255 0.3167062 0.5711624
0.2085672 0.9397612 2.053457 12 12 12 255 0.313711 0.5839157
0.2926553 0.9234896 2.053457 7 7 7 255 0.3469263 0.5978504
0.2085672 0.9234896 2.053457 12 12 12 255 0.3190934 0.5794172
0.3061522 0.9397612 2.053457 136 133 133 255 0.958901 5.960464e-08
0.3061522 0.8568209 0.006838239 38 37 37 255 0.9946421 0.8916587
0.3061522 0.8568215 2.053457 12 12 12 255 0.9946423 5.960464e-08
0.2926553 0.8568215 2.053457 12 11 11 255 5.960464e-08 0.9248333
0.2926553 0.9234889 0.006838218 65 65 65 255 0.8808635 0.8957565
0.2926553 0.9234896 2.053457 7 7 7 255 5.960464e-08 0.8957564
0.2085672 0.9234896 2.053457 12 12 12 255 0.9186685 0.8916969
0.3061522 0.9397612 2.053457 136 133 133 255 0.3460113 0.6053082
0.2926553 0.8568209 0.006838239 86 86 86 255 0.8736382 0.9940231
0.3061522 0.8568215 2.053457 12 12 12 255 8.940697e-08 0.9999463
0.3061522 0.8568209 0.006838239 38 37 37 255 0.8736382 0.9999483
0.3061522 0.8568215 2.053457 12 12 12 255 0.3734477 0.582377
0.3061522 0.9397612 2.053457 136 133 133 255 0.8726232 0.8917586
0.3061522 0.9397605 0.006838212 41 41 41 255 0.9589007 0.8916587
0.2926553 0.8568209 0.006838239 86 86 86 255 0.8808635 0.9248334
0.2085672 0.9397605 0.006838212 134 133 133 255 0.9999989 0.928831
0.2085672 0.9234896 2.053457 12 12 12 255 0.1032347 0.9357955
0.2085672 0.9234889 0.006838218 129 128 128 255 0.9999989 0.9357944
0.2085672 0.9397612 2.053457 12 12 12 255 0.1032347 0.9288321
0.2926553 0.9234889 0.006838218 65 65 65 255 0.2834194 0.585075
0.2926553 0.8568209 0.006838239 86 86 86 255 0.2613209 0.5666711
0.3061522 0.8568209 0.006838239 38 37 37 255 0.256844 0.5696262
0.2926553 0.8568215 2.053457 12 11 11 255 8.940697e-08 0.9940212
0.2926553 0.8568215 2.053457 12 11 11 255 0.3689806 0.5794172
-0.2223299 -1.055266 0.006838218 129 128 128 255 0.9186681 8.940697e-08
-0.306418 -1.055267 2.053457 7 7 7 255 0.9549029 0.8916968
-0.306418 -1.055266 0.006838218 65 65 65 255 0.9549025 5.960464e-08
-0.3199149 -1.071538 0.006838212 41 41 41 255 0.872623 8.940697e-08
-0.2223299 -1.071539 2.053457 12 12 12 255 0.9146703 0.8917586
-0.2223299 -1.071538 0.006838212 134 133 133 255 0.9146701 5.960464e-08
-0.2223299 -1.055266 0.006838218 129 128 128 255 0.311313 0.5666711
-0.3199149 -1.071538 0.006838212 41 41 41 255 0.2843355 0.592521
-0.2223299 -1.071538 0.006838212 134 133 133 255 0.3167062 0.5711624
-0.2223299 -1.071539 2.053457 12 12 12 255 0.313711 0.5839157
-0.306418 -1.055267 2.053457 7 7 7 255 0.3469263 0.5978504
-0.2223299 -1.055267 2.053457 12 12 12 255 0.3190934 0.5794172
-0.3199149 -1.071539 2.053457 136 133 133 255 0.958901 5.960464e-08
-0.3199149 -0.9885982 0.006838239 38 37 37 255 0.9946421 0.8916587
-0.3199149 -0.9885988 2.053457 12 12 12 255 0.9946423 5.960464e-08
-0.306418 -0.9885988 2.053457 12 11 11 255 5.960464e-08 0.9248333
-0.306418 -1.055266 0.006838218 65 65 65 255 0.8808635 0.8957565
-0.306418 -1.055267 2.053457 7 7 7 255 5.960464e-08 0.8957564
-0.2223299 -1.055267 2.053457 12 12 12 255 0.9186685 0.8916969
-0.3199149 -1.071539 2.053457 136 133 133 255 0.3460113 0.6053082
-0.306418 -0.9885982 0.006838239 86 86 86 255 0.8736382 0.9940231
-0.3199149 -0.9885988 2.053457 12 12 12 255 8.940697e-08 0.9999463
-0.3199149 -0.9885982 0.006838239 38 37 37 255 0.8736382 0.9999483
-0.3199149 -0.9885988 2.053457 12 12 12 255 0.3734477 0.582377
-0.3199149 -1.071539 2.053457 136 133 133 255 0.8726232 0.8917586
-0.3199149 -1.071538 0.006838212 41 41 41 255 0.9589007 0.8916587
-0.306418 -0.9885982 0.006838239 86 86 86 255 0.8808635 0.9248334
-0.2223299 -1.071538 0.006838212 134 133 133 255 0.9999989 0.928831
-0.2223299 -1.055267 2.053457 12 12 12 255 0.1032347 0.9357955
-0.2223299 -1.055266 0.006838218 129 128 128 255 0.9999989 0.9357944
-0.2223299 -1.071539 2.053457 12 12 12 255 0.1032347 0.9288321
-0.306418 -1.055266 0.006838218 65 65 65 255 0.2834194 0.585075
-0.306418 -0.9885982 0.006838239 86 86 86 255 0.2613209 0.5666711
-0.3199149 -0.9885982 0.006838239 38 37 37 255 0.256844 0.5696262
-0.306418 -0.9885988 2.053457 12 11 11 255 8.940697e-08 0.9940212
-0.306418 -0.9885988 2.053457 12 11 11 255 0.3689806 0.5794172
0.2085672 -1.055266 0.006838218 129 128 128 255 0.9186681 8.940697e-08
0.2926553 -1.055266 0.006838218 65 65 65 255 0.9549025 5.960464e-08
0.2926553 -1.055267 2.053457 7 7 7 255 0.9549029 0.8916968
0.3061522 -1.071538 0.006838212 41 41 41 255 0.872623 8.940697e-08
0.2085672 -1.071538 0.006838212 134 133 133 255 0.9146701 5.960464e-08
0.2085672 -1.071539 2.053457 12 12 12 255 0.9146703 0.8917586
0.2085672 -1.055266 0.006838218 129 128 128 255 0.311313 0.5666711
0.2085672 -1.071538 0.006838212 134 133 133 255 0.3167062 0.5711624
0.3061522 -1.071538 0.006838212 41 41 41 255 0.2843355 0.592521
0.2085672 -1.071539 2.053457 12 12 12 255 0.313711 0.5839157
0.2085672 -1.055267 2.053457 12 12 12 255 0.3190934 0.5794172
0.2926553 -1.055267 2.053457 7 7 7 255 0.3469263 0.5978504
0.3061522 -1.071539 2.053457 136 133 133 255 0.958901 5.960464e-08
0.3061522 -0.9885988 2.053457 12 12 12 255 0.9946423 5.960464e-08
0.3061522 -0.9885982 0.006838239 38 37 37 255 0.9946421 0.8916587
0.2926553 -0.9885988 2.053457 12 11 11 255 5.960464e-08 0.9248333
0.2926553 -1.055267 2.053457 7 7 7 255 5.960464e-08 0.8957564
0.2926553 -1.055266 0.006838218 65 65 65 255 0.8808635 0.8957565
0.2085672 -1.055267 2.053457 12 12 12 255 0.9186685 0.8916969
0.3061522 -1.071539 2.053457 136 133 133 255 0.3460113 0.6053082
0.2926553 -0.9885982 0.006838239 86 86 86 255 0.8736382 0.9940231
0.3061522 -0.9885982 0.006838239 38 37 37 255 0.8736382 0.9999483
0.3061522 -0.9885988 2.053457 12 12 12 255 8.940697e-08 0.9999463
0.3061522 -0.9885988 2.053457 12 12 12 255 0.3734477 0.582377
0.3061522 -1.071539 2.053457 136 133 133 255 0.8726232 0.8917586
0.3061522 -1.071538 0.006838212 41 41 41 255 0.9589007 0.8916587
0.2926553 -0.9885982 0.006838239 86 86 86 255 0.8808635 0.9248334
0.2085672 -1.071538 0.006838212 134 133 133 255 0.9999989 0.928831
0.2085672 -1.055266 0.006838218 129 128 128 255 0.9999989 0.9357944
0.2085672 -1.055267 2.053457 12 12 12 255 0.1032347 0.9357955
0.2085672 -1.071539 2.053457 12 12 12 255 0.1032347 0.9288321
0.2926553 -1.055266 0.006838218 65 65 65 255 0.2834194 0.585075
0.2926553 -0.9885982 0.006838239 86 86 86 255 0.2613209 0.5666711
0.3061522 -0.9885982 0.006838239 38 37 37 255 0.256844 0.5696262
0.2926553 -0.9885988 2.053457 12 11 11 255 8.940697e-08 0.9940212
0.2926553 -0.9885988 2.053457 12 11 11 255 0.3689806 0.5794172
0.2774231 0.9125043 1.993857 141 138 138 255 0.2509251 0.5639837
0.2774231 0.9125043 2.021528 141 138 138 255 0.2509251 0.5757045
-0.2911858 0.9125043 2.021528 112 110 110 255 4.470348e-08 0.5757042
0.2952245 0.9341102 1.995823 0 0 0 255 0.126581 0.9551967
0.2952245 0.9341102 2.031666 0 0 0 255 0.1265807 0.9397933
0.2952245 -1.06589 2.031667 0 0 0 255 0.9999985 0.9397933
-0.2911858 -1.044284 2.021529 133 130 130 255 0.8458212 0.5122992
-0.2911858 0.9125043 2.021528 112 110 110 255 0 0.5122991
0.2774231 0.9125043 2.021528 141 138 138 255 5.960464e-08 0.2652616
-0.2911858 -1.044284 1.993858 88 86 86 255 0.6176377 0.5482638
0.2774231 -1.044284 1.993858 118 116 116 255 0.8610029 0.548264
0.2952245 -1.06589 1.995824 0 0 0 255 0.8686231 0.5577694
-0.3089873 -1.06589 2.031667 0 0 0 255 0.610022 0.5734731
-0.3089873 -1.06589 1.995824 0 0 0 255 0.6100199 0.5577692
0.2952245 -1.06589 1.995824 0 0 0 255 0.8686231 0.5577694
-0.2911858 -1.044284 2.021529 133 130 130 255 0.02917638 0.5442674
-0.2911858 -1.044284 1.993858 88 86 86 255 0.02917632 0.5321659
-0.2911858 0.9125043 1.993857 97 95 95 255 0.8686253 0.532164
0.2774231 -1.044284 1.993858 118 116 116 255 8.940697e-08 0.5281659
0.2774231 -1.044284 2.021529 133 130 130 255 8.940697e-08 0.516297
0.2774231 0.9125043 2.021528 141 138 138 255 0.8558728 0.5162974
-0.3089873 0.9341102 2.031666 100 98 98 255 0.1275945 0.9900235
-0.3089873 0.9341102 1.995823 39 38 38 255 0.1275938 0.9745988
-0.3089873 -1.06589 1.995824 0 0 0 255 0.9999867 0.9745981
0.2952245 -1.06589 1.995824 0 0 0 255 0.9999988 0.9551966
0.2774231 -1.044284 2.021529 133 130 130 255 0.3440415 0.5482653
0.2774231 -1.044284 1.993858 118 116 116 255 0.3440415 0.559986
-0.2911858 -1.044284 1.993858 88 86 86 255 0.09311646 0.5599857
0.2774231 -1.044284 2.021529 133 130 130 255 0.8458213 0.2652617
-0.2911858 0.9125043 2.021528 112 110 110 255 0.8686253 0.5442655
0.2774231 0.9125043 1.993857 141 138 138 255 0.8558728 0.5281663
-0.3089873 0.9341102 1.995823 39 38 38 255 0.6060219 0.5577869
-0.3089873 0.9341102 2.031666 100 98 98 255 0.6060189 0.5735192
0.2952245 0.9341102 2.031666 0 0 0 255 0.3480369 0.5735193
-0.2911858 0.9125043 1.993857 97 95 95 255 7.450581e-08 0.5639834
0.2952245 -1.06589 2.031667 0 0 0 255 8.940697e-08 1.192093e-07
0.2952245 0.9341102 2.031666 0 0 0 255 0.8686252 4.470348e-08
-0.3089873 0.9341102 2.031666 100 98 98 255 0.8686253 0.2612637
-0.2911858 0.9125043 1.993857 97 95 95 255 0.1370179 0.9668916
-0.2911858 -1.044284 1.993858 88 86 86 255 0.9905618 0.9668909
-0.3089873 -1.06589 1.995824 0 0 0 255 0.9999867 0.9745981
0.2774231 -1.044284 1.993858 118 116 116 255 0.9905633 0.9628931
0.2774231 0.9125043 1.993857 141 138 138 255 0.1360167 0.9628932
0.2952245 0.9341102 1.995823 0 0 0 255 0.126581 0.9551967
0.2952245 0.9341102 1.995823 0 0 0 255 0.126581 0.9551967
0.2952245 -1.06589 1.995824 0 0 0 255 0.9999988 0.9551966
0.2774231 -1.044284 1.993858 118 116 116 255 0.9905633 0.9628931
-0.3089873 -1.06589 1.995824 0 0 0 255 0.6100199 0.5577692
0.2952245 0.9341102 1.995823 0 0 0 255 0.34804 0.5577871
-0.3089873 -1.06589 2.031667 0 0 0 255 0.9999874 0.9900227
-0.2911858 -1.044284 2.021529 133 130 130 255 0.09311648 0.548265
-0.3089873 -1.06589 2.031667 0 0 0 255 1.192093e-07 0.2612637
-0.3089873 -1.06589 1.995824 0 0 0 255 0.9999867 0.9745981
-0.3089873 0.9341102 1.995823 39 38 38 255 0.1275938 0.9745988
-0.2911858 0.9125043 1.993857 97 95 95 255 0.1370179 0.9668916
0.2774231 0.9125043 1.993857 141 138 138 255 0.3556426 0.5482645
-0.2911858 0.9125043 1.993857 97 95 95 255 0.5984231 0.5482644
-0.3089873 0.9341102 1.995823 39 38 38 255 0.6060219 0.5577869
0.2952245 0.9341102 1.995823 0 0 0 255 0.34804 0.5577871
0.2952245 -1.06589 2.031667 0 0 0 255 0.8686252 0.5734733
0.2774231 0.9125043 1.452411 141 138 138 255 0.2509251 0.5639837
0.2774231 0.9125043 1.480082 141 138 138 255 0.2509251 0.5757045
-0.2911858 0.9125043 1.480082 112 110 110 255 4.470348e-08 0.5757042
0.2952245 0.9341102 1.454377 0 0 0 255 0.126581 0.9551967
0.2952245 0.9341102 1.49022 0 0 0 255 0.1265807 0.9397933
0.2952245 -1.06589 1.490221 0 0 0 255 0.9999985 0.9397933
-0.2911858 -1.044284 1.480083 133 130 130 255 0.8458212 0.5122992
-0.2911858 0.9125043 1.480082 112 110 110 255 0 0.5122991
0.2774231 0.9125043 1.480082 141 138 138 255 5.960464e-08 0.2652616
-0.2911858 -1.044284 1.452412 88 86 86 255 0.6176377 0.5482638
0.2774231 -1.044284 1.452412 118 116 116 255 0.8610029 0.548264
0.2952245 -1.06589 1.454377 0 0 0 255 0.8686231 0.5577694
-0.3089873 -1.06589 1.490221 0 0 0 255 0.610022 0.5734731
-0.3089873 -1.06589 1.454377 0 0 0 255 0.6100199 0.5577692
0.2952245 -1.06589 1.454377 0 0 0 255 0.8686231 0.5577694
-0.2911858 -1.044284 1.480083 133 130 130 255 0.02917638 0.5442674
-0.2911858 -1.044284 1.452412 88 86 86 255 0.02917632 0.5321659
-0.2911858 0.9125043 1.452411 97 95 95 255 0.8686253 0.532164
0.2774231 -1.044284 1.452412 118 116 116 255 8.940697e-08 0.5281659
0.2774231 -1.044284 1.480083 133 130 130 255 8.940697e-08 0.516297
0.2774231 0.9125043 1.480082 141 138 138 255 0.8558728 0.5162974
-0.3089873 0.9341102 1.49022 100 98 98 255 0.1275945 0.9900235
-0.3089873 0.9341102 1.454377 39 38 38 255 0.1275938 0.9745988
-0.3089873 -1.06589 1.454377 0 0 0 255 0.9999867 0.9745981
0.2952245 -1.06589 1.454377 0 0 0 255 0.9999988 0.9551966
0.2774231 -1.044284 1.480083 133 130 130 255 0.3440415 0.5482653
0.2774231 -1.044284 1.452412 118 116 116 255 0.3440415 0.559986
-0.2911858 -1.044284 1.452412 88 86 86 255 0.09311646 0.5599857
0.2774231 -1.044284 1.480083 133 130 130 255 0.8458213 0.2652617
-0.2911858 0.9125043 1.480082 112 110 110 255 0.8686253 0.5442655
0.2774231 0.9125043 1.452411 141 138 138 255 0.8558728 0.5281663
-0.3089873 0.9341102 1.454377 39 38 38 255 0.6060219 0.5577869
-0.3089873 0.9341102 1.49022 100 98 98 255 0.6060189 0.5735192
0.2952245 0.9341102 1.49022 0 0 0 255 0.3480369 0.5735193
-0.2911858 0.9125043 1.452411 97 95 95 255 7.450581e-08 0.5639834
0.2952245 -1.06589 1.490221 0 0 0 255 8.940697e-08 1.192093e-07
0.2952245 0.9341102 1.49022 0 0 0 255 0.8686252 4.470348e-08
-0.3089873 0.9341102 1.49022 100 98 98 255 0.8686253 0.2612637
-0.2911858 0.9125043 1.452411 97 95 95 255 0.1370179 0.9668916
-0.2911858 -1.044284 1.452412 88 86 86 255 0.9905618 0.9668909
-0.3089873 -1.06589 1.454377 0 0 0 255 0.9999867 0.9745981
0.2774231 -1.044284 1.452412 118 116 116 255 0.9905633 0.9628931
0.2774231 0.9125043 1.452411 141 138 138 255 0.1360167 0.9628932
0.2952245 0.9341102 1.454377 0 0 0 255 0.126581 0.9551967
0.2952245 0.9341102 1.454377 0 0 0 255 0.126581 0.9551967
0.2952245 -1.06589 1.454377 0 0 0 255 0.9999988 0.9551966
0.2774231 -1.044284 1.452412 118 116 116 255 0.9905633 0.9628931
-0.3089873 -1.06589 1.454377 0 0 0 255 0.6100199 0.5577692
0.2952245 0.9341102 1.454377 0 0 0 255 0.34804 0.5577871
-0.3089873 -1.06589 1.490221 0 0 0 255 0.9999874 0.9900227
-0.2911858 -1.044284 1.480083 133 130 130 255 0.09311648 0.548265
-0.3089873 -1.06589 1.490221 0 0 0 255 1.192093e-07 0.2612637
-0.3089873 -1.06589 1.454377 0 0 0 255 0.9999867 0.9745981
-0.3089873 0.9341102 1.454377 39 38 38 255 0.1275938 0.9745988
-0.2911858 0.9125043 1.452411 97 95 95 255 0.1370179 0.9668916
0.2774231 0.9125043 1.452411 141 138 138 255 0.3556426 0.5482645
-0.2911858 0.9125043 1.452411 97 95 95 255 0.5984231 0.5482644
-0.3089873 0.9341102 1.454377 39 38 38 255 0.6060219 0.5577869
0.2952245 0.9341102 1.454377 0 0 0 255 0.34804 0.5577871
0.2952245 -1.06589 1.490221 0 0 0 255 0.8686252 0.5734733
3 0 1 2 
3 3 4 5 
3 6 7 8 
3 9 10 11 
3 12 13 14 
3 15 16 17 
3 18 19 20 
3 21 22 23 
3 5 24 3 
3 25 26 27 
3 8 28 6 
3 17 29 15 
3 20 30 18 
3 31 32 33 
3 2 34 0 
3 35 36 37 
3 38 39 40 
3 41 42 43 
3 44 45 46 
3 11 47 9 
3 33 48 31 
3 23 49 21 
3 27 50 25 
3 37 51 35 
3 52 53 54 
3 55 56 57 
3 57 58 55 
3 14 59 12 
3 60 61 62 
3 63 64 65 
3 66 67 68 
3 69 70 71 
3 72 73 74 
3 75 76 77 
3 78 60 62 
3 71 79 69 
3 80 81 82 
3 83 79 71 
3 65 84 63 
3 74 85 72 
3 77 86 75 
3 87 88 89 
3 89 90 87 
3 68 91 66 
3 92 91 68 
3 68 93 92 
3 82 94 80 
3 71 95 83 
3 96 97 98 
3 99 100 101 
3 102 103 104 
3 105 106 107 
3 108 109 110 
3 111 112 113 
3 114 97 96 
3 106 105 115 
3 116 117 118 
3 119 106 115 
3 100 99 120 
3 109 108 121 
3 112 111 122 
3 123 124 125 
3 124 123 126 
3 103 102 127 
3 128 103 127 
3 103 128 129 
3 117 116 130 
3 106 119 131 
3 132 133 134 
3 135 136 137 
3 138 139 140 
3 141 142 143 
3 144 145 146 
3 147 148 149 
3 150 133 132 
3 142 141 151 
3 152 153 154 
3 155 142 151 
3 136 135 156 
3 145 144 157 
3 148 147 158 
3 159 160 161 
3 160 159 162 
3 139 138 163 
3 164 139 163 
3 139 164 165 
3 153 152 166 
3 142 155 167 
3 168 169 170 
3 171 172 173 
3 174 175 176 
3 177 178 179 
3 180 181 182 
3 183 184 185 
3 186 168 170 
3 179 187 177 
3 188 189 190 
3 191 187 179 
3 173 192 171 
3 182 193 180 
3 185 194 183 
3 195 196 197 
3 197 198 195 
3 176 199 174 
3 200 199 176 
3 176 201 200 
3 190 202 188 
3 179 203 191 
3 204 205 206 
3 207 208 209 
3 210 211 212 
3 213 214 215 
3 216 217 218 
3 219 220 221 
3 222 223 224 
3 225 226 227 
3 209 228 207 
3 229 230 231 
3 212 232 210 
3 221 233 219 
3 224 234 222 
3 235 236 237 
3 206 238 204 
3 239 240 241 
3 242 243 244 
3 245 246 247 
3 248 249 250 
3 215 251 213 
3 237 252 235 
3 227 253 225 
3 231 254 229 
3 241 255 239 
3 256 257 258 
3 259 260 261 
3 261 262 259 
3 218 263 216 
3 264 265 266 
3 267 268 269 
3 270 271 272 
3 273 274 275 
3 276 277 278 
3 279 280 281 
3 282 283 284 
3 285 286 287 
3 269 288 267 
3 289 290 291 
3 272 292 270 
3 281 293 279 
3 284 294 282 
3 295 296 297 
3 266 298 264 
3 299 300 301 
3 302 303 304 
3 305 306 307 
3 308 309 310 
3 275 311 273 
3 297 312 295 
3 287 313 285 
3 291 314 289 
3 301 315 299 
3 316 317 318 
3 319 320 321 
3 321 322 319 
3 278 323 276 
